#N canvas 258 143 1421 456 10;
#X declare -lib mrpeach;
#X obj -33 246 import mrpeach;
#X obj 82 269 tgl 15 0 empty empty empty 17 7 0 10 -262144 -1 -1 1
1;
#X obj 80 241 udpsend;
#X msg 169 225 connect 127.0.0.1 54321;
#X obj 87 135 hotpack f f f;
#X obj 120 25 vsl 30 80 0 500 0 0 empty empty empty 0 -9 0 10 -262144
-1 -1 0 1;
#X obj 167 24 vsl 30 80 0 127 0 0 empty empty empty 0 -9 0 10 -262144
-1 -1 0 1;
#X obj 80 212 packOSC;
#X obj 81 22 vsl 30 80 0 1 0 0 empty empty empty 0 -9 0 10 -262144
-1 -1 7900 1;
#X obj -99 22 vsl 30 80 0 127 0 0 empty empty empty 0 -9 0 10 -262144
-1 -1 0 1;
#X obj -138 19 vsl 30 80 0 200 0 0 empty empty empty 0 -9 0 10 -262144
-1 -1 1991 1;
#X obj -131 130 hotpack f f;
#X obj -42 -53 ctlin 1;
#X obj 47 -9 / 127;
#X obj -146 -48 ctlin 0;
#X obj -144 -16 expr $f1/127*200;
#X obj 347 21 vsl 30 80 0 8192 0 0 empty empty empty 0 -9 0 10 -262144
-1 -1 0 1;
#X obj 399 23 vsl 30 80 0 1024 0 0 empty empty empty 0 -9 0 10 -262144
-1 -1 0 1;
#X obj 347 135 hotpack f f;
#X obj 457 -18 expr $f1/127*1024;
#X obj 581 23 vsl 30 80 0 99 0 0 empty empty empty 0 -9 0 10 -262144
-1 -1 0 1;
#X obj 634 26 vsl 30 80 0 200 0 0 empty empty empty 0 -9 0 10 -262144
-1 -1 0 1;
#X obj 581 138 hotpack f f;
#X msg 579 168 /neurons_net/neuron_dc \$1 \$2;
#X obj 577 -28 expr $f1/127*100;
#X obj 589 -1 int;
#X obj 846 34 vsl 30 80 0 500 0 0 empty empty empty 0 -9 0 10 -262144
-1 -1 0 1;
#X obj 890 -13 expr $f1/127*500;
#X obj 780 145 hotpack f f f;
#X obj 790 24 vsl 30 80 0 99 0 0 empty empty empty 0 -9 0 10 -262144
-1 -1 80 1;
#X obj 785 -27 expr $f1/127*100;
#X obj 798 -1 int;
#X obj 171 -51 ctlin 3;
#X obj 118 -46 ctlin 2;
#X obj 49 -40 ctlin 18;
#X obj 341 -61 ctlin 4;
#X obj 457 -57 ctlin 5;
#X obj 673 -68 ctlin 6;
#X obj 575 -63 ctlin 22;
#X obj 784 -61 ctlin 23;
#X obj 900 -51 ctlin 7;
#X obj 113 -17 expr $f1/127*500;
#X msg 778 228 /neurons_net/syn_w \$1 \$2 \$3;
#X obj 1144 10 vsl 30 80 0.001 1 0 0 empty empty empty 0 -9 0 10 -262144
-1 -1 7900 1;
#X obj 1141 125 hotpack f;
#X msg 1138 153 /neurons_net/all_neurons_tau \$1;
#X obj 1142 -67 ctlin 16;
#X obj 727 40 nbx 5 14 -1e+37 1e+37 0 0 empty empty empty 0 -8 0 10
-262144 -1 -1 1 256;
#X obj 964 141 hotpack f f f;
#X msg 961 207 /neurons_net/syn_d \$1 \$2 \$3;
#X obj 494 39 nbx 5 14 -1e+37 1e+37 0 0 empty empty empty 0 -8 0 10
-262144 -1 -1 42 256;
#X obj 350 109 int;
#X obj 1037 29 vsl 30 80 0 8192 0 0 empty empty empty 0 -9 0 10 -262144
-1 -1 48 1;
#X obj 1034 118 int;
#X obj 1040 -42 nbx 5 14 -1e+37 1e+37 0 0 empty empty empty 0 -8 0
10 -262144 -1 -1 50 256;
#X obj 1040 -11 int;
#X obj 341 -28 expr $f1/127*1000;
#X obj 1143 -33 expr $f1/127*5;
#X msg -129 169 /neurons_net/dc_mean_std \$1 \$2;
#X msg 90 173 /neurons_net/syn_w_mean_std \$1 \$2 \$3;
#X msg 346 166 /neurons_net/syn_d_mean_std \$1 \$2;
#X obj 347 213 vsl 30 80 0 10 0 0 empty empty empty 0 -9 0 10 -262144
-1 -1 400 1;
#X obj 389 205 vsl 30 80 0 100 0 0 empty empty empty 0 -9 0 10 -262144
-1 -1 7130 1;
#X obj 345 308 hotpack f f;
#X msg 344 339 /neurons_net/fr_set \$1 \$2;
#X obj 279 295 nbx 5 14 -1e+37 1e+37 0 0 empty empty empty 0 -8 0 10
-262144 -1 -1 118.25 256;
#X obj 433 308 nbx 5 14 1e-06 1e+37 0 0 empty empty empty 0 -8 0 10
-262144 -1 -1 16.2532 256;
#X obj 657 -7 expr $f1/127*200;
#X obj 575 350 line;
#X msg 552 317 0 50;
#X obj 593 249 metrum;
#X msg 603 320 100 50;
#X obj 593 274 t b b;
#X obj 551 294 pipe 500;
#X connect 2 0 1 0;
#X connect 3 0 2 0;
#X connect 4 0 59 0;
#X connect 5 0 4 1;
#X connect 6 0 4 2;
#X connect 7 0 2 0;
#X connect 8 0 4 0;
#X connect 9 0 11 1;
#X connect 10 0 11 0;
#X connect 11 0 58 0;
#X connect 12 0 9 0;
#X connect 13 0 8 0;
#X connect 14 0 15 0;
#X connect 15 0 10 0;
#X connect 16 0 51 0;
#X connect 17 0 18 1;
#X connect 18 0 60 0;
#X connect 19 0 17 0;
#X connect 20 0 22 0;
#X connect 20 0 28 0;
#X connect 20 0 48 0;
#X connect 21 0 22 1;
#X connect 22 0 23 0;
#X connect 23 0 7 0;
#X connect 24 0 25 0;
#X connect 25 0 20 0;
#X connect 26 0 28 2;
#X connect 27 0 26 0;
#X connect 28 0 42 0;
#X connect 29 0 28 1;
#X connect 29 0 48 1;
#X connect 30 0 31 0;
#X connect 31 0 29 0;
#X connect 32 0 6 0;
#X connect 33 0 41 0;
#X connect 34 0 13 0;
#X connect 35 0 56 0;
#X connect 36 0 19 0;
#X connect 37 0 67 0;
#X connect 38 0 24 0;
#X connect 39 0 30 0;
#X connect 40 0 27 0;
#X connect 41 0 5 0;
#X connect 42 0 7 0;
#X connect 43 0 44 0;
#X connect 44 0 45 0;
#X connect 45 0 7 0;
#X connect 46 0 57 0;
#X connect 47 0 31 0;
#X connect 48 0 49 0;
#X connect 49 0 7 0;
#X connect 50 0 20 0;
#X connect 51 0 18 0;
#X connect 52 0 53 0;
#X connect 53 0 48 2;
#X connect 54 0 55 0;
#X connect 55 0 52 0;
#X connect 56 0 16 0;
#X connect 57 0 43 0;
#X connect 58 0 7 0;
#X connect 59 0 7 0;
#X connect 60 0 7 0;
#X connect 61 0 65 0;
#X connect 62 0 66 0;
#X connect 63 0 64 0;
#X connect 64 0 7 0;
#X connect 65 0 63 0;
#X connect 66 0 63 1;
#X connect 67 0 21 0;
#X connect 68 0 22 1;
#X connect 69 0 68 0;
#X connect 70 0 72 0;
#X connect 71 0 68 0;
#X connect 72 0 73 0;
#X connect 72 1 71 0;
#X connect 73 0 69 0;
